<mxfile host="65bd71144e">
    <diagram id="HaY6czHnYQWGNKejsw9c" name="Page-1">
        <mxGraphModel dx="1014" dy="717" grid="1" gridSize="10" guides="1" tooltips="1" connect="1" arrows="1" fold="1" page="1" pageScale="1" pageWidth="827" pageHeight="1169" math="0" shadow="0">
            <root>
                <mxCell id="0"/>
                <mxCell id="1" parent="0"/>
                <mxCell id="27" value="container (root)" style="swimlane;fontSize=12;movable=1;resizable=1;rotatable=1;deletable=1;editable=1;connectable=1;startSize=30;fillColor=#fff2cc;strokeColor=#d6b656;" parent="1" vertex="1">
                    <mxGeometry width="825" height="930" as="geometry"/>
                </mxCell>
                <mxCell id="304" value="" style="rounded=0;whiteSpace=wrap;html=1;fillColor=#eeeeee;strokeColor=#36393d;" parent="27" vertex="1">
                    <mxGeometry y="30" width="825" height="900" as="geometry"/>
                </mxCell>
                <mxCell id="72" value="botContainer (Multiple Tenant)" style="swimlane;fontSize=12;startSize=30;movable=1;resizable=1;rotatable=1;deletable=1;editable=1;connectable=1;fillColor=#dae8fc;strokeColor=#6c8ebf;" parent="27" vertex="1">
                    <mxGeometry x="230" y="410" width="580" height="500" as="geometry"/>
                </mxCell>
                <mxCell id="213" value="" style="ellipse;whiteSpace=wrap;html=1;align=center;aspect=fixed;resizable=0;points=[];outlineConnect=0;sketch=0;" parent="72" vertex="1">
                    <mxGeometry x="285" y="205" width="10" height="10" as="geometry"/>
                </mxCell>
                <mxCell id="214" value="" style="group;rotation=0;" parent="72" vertex="1" connectable="0">
                    <mxGeometry x="270" y="210" width="40" as="geometry"/>
                </mxCell>
                <mxCell id="215" value="" style="rounded=0;orthogonalLoop=1;jettySize=auto;html=1;endArrow=none;endFill=0;sketch=0;sourcePerimeterSpacing=0;targetPerimeterSpacing=0;" parent="214" target="213" edge="1">
                    <mxGeometry relative="1" as="geometry">
                        <mxPoint x="40" as="sourcePoint"/>
                    </mxGeometry>
                </mxCell>
                <mxCell id="216" value="" style="rounded=0;orthogonalLoop=1;jettySize=auto;html=1;endArrow=halfCircle;endFill=0;entryX=0.5;entryY=0.5;endSize=6;strokeWidth=1;sketch=0;exitX=0.5;exitY=0.5;exitDx=0;exitDy=0;entryDx=0;entryDy=0;" parent="214" target="213" edge="1">
                    <mxGeometry relative="1" as="geometry">
                        <mxPoint as="sourcePoint"/>
                    </mxGeometry>
                </mxCell>
                <mxCell id="246" value="session (Single Tenant)" style="swimlane;fontSize=12;startSize=30;fillColor=#fff2cc;strokeColor=#d6b656;" parent="72" vertex="1">
                    <mxGeometry x="10" y="100" width="560" height="390" as="geometry"/>
                </mxCell>
                <object label="Providers" placeholders="1" id="247">
                    <mxCell style="swimlane;fontStyle=2;align=center;verticalAlign=top;childLayout=stackLayout;horizontal=1;startSize=30;horizontalStack=0;resizeParent=1;resizeParentMax=0;resizeLast=0;collapsible=1;marginBottom=0;fontSize=12;" parent="246" vertex="1">
                        <mxGeometry x="300" y="50" width="160" height="90" as="geometry"/>
                    </mxCell>
                </object>
                <mxCell id="248" value="user_id from command" style="html=1;fontSize=12;fillColor=#ffe6cc;strokeColor=#d79b00;" parent="247" vertex="1">
                    <mxGeometry y="30" width="160" height="20" as="geometry"/>
                </mxCell>
                <mxCell id="281" value="&lt;div style=&quot;text-align: left&quot;&gt;&lt;span&gt;SlackPromptProvider&lt;/span&gt;&lt;/div&gt;" style="html=1;fontSize=12;fillColor=#d5e8d4;strokeColor=#82b366;" parent="247" vertex="1">
                    <mxGeometry y="50" width="160" height="20" as="geometry"/>
                </mxCell>
                <mxCell id="263" value="&lt;div style=&quot;text-align: left&quot;&gt;&lt;span&gt;() =&amp;gt; session.child()&lt;/span&gt;&lt;/div&gt;" style="html=1;fontSize=12;fillColor=#dae8fc;strokeColor=#6c8ebf;" parent="247" vertex="1">
                    <mxGeometry y="70" width="160" height="20" as="geometry"/>
                </mxCell>
                <mxCell id="251" value="Tokens" style="swimlane;fontStyle=2;align=center;verticalAlign=top;childLayout=stackLayout;horizontal=1;startSize=30;horizontalStack=0;resizeParent=1;resizeParentMax=0;resizeLast=0;collapsible=1;marginBottom=0;fontSize=12;movable=1;resizable=1;rotatable=1;deletable=1;editable=1;connectable=1;" parent="246" vertex="1">
                    <mxGeometry x="100" y="50" width="160" height="90" as="geometry"/>
                </mxCell>
                <mxCell id="252" value="&lt;span style=&quot;font-style: italic ; text-align: left&quot;&gt;SlackUserId&lt;/span&gt;" style="html=1;fontSize=12;fillColor=#ffe6cc;strokeColor=#d79b00;" parent="251" vertex="1">
                    <mxGeometry y="30" width="160" height="20" as="geometry"/>
                </mxCell>
                <mxCell id="285" value="&lt;span style=&quot;font-style: italic ; text-align: left&quot;&gt;PromptProvider&lt;/span&gt;" style="html=1;fontSize=12;fillColor=#d5e8d4;strokeColor=#82b366;" parent="251" vertex="1">
                    <mxGeometry y="50" width="160" height="20" as="geometry"/>
                </mxCell>
                <mxCell id="258" value="&lt;span style=&quot;font-style: italic ; text-align: left&quot;&gt;ChildContainer&lt;/span&gt;" style="html=1;fontSize=12;fillColor=#dae8fc;strokeColor=#6c8ebf;" parent="251" vertex="1">
                    <mxGeometry y="70" width="160" height="20" as="geometry"/>
                </mxCell>
                <mxCell id="253" value="" style="ellipse;whiteSpace=wrap;html=1;align=center;aspect=fixed;resizable=0;points=[];outlineConnect=0;sketch=0;" parent="246" vertex="1">
                    <mxGeometry x="275" y="85" width="10" height="10" as="geometry"/>
                </mxCell>
                <mxCell id="254" value="" style="group;rotation=0;" parent="246" vertex="1" connectable="0">
                    <mxGeometry x="260" y="90" width="40" as="geometry"/>
                </mxCell>
                <mxCell id="255" value="" style="rounded=0;orthogonalLoop=1;jettySize=auto;html=1;endArrow=none;endFill=0;sketch=0;sourcePerimeterSpacing=0;targetPerimeterSpacing=0;" parent="254" target="253" edge="1">
                    <mxGeometry relative="1" as="geometry">
                        <mxPoint x="40" as="sourcePoint"/>
                    </mxGeometry>
                </mxCell>
                <mxCell id="256" value="" style="rounded=0;orthogonalLoop=1;jettySize=auto;html=1;endArrow=halfCircle;endFill=0;entryX=0.5;entryY=0.5;endSize=6;strokeWidth=1;sketch=0;exitX=0.5;exitY=0.5;exitDx=0;exitDy=0;entryDx=0;entryDy=0;" parent="254" target="253" edge="1">
                    <mxGeometry relative="1" as="geometry">
                        <mxPoint as="sourcePoint"/>
                    </mxGeometry>
                </mxCell>
                <mxCell id="223" value="appContainer (Single Tenant)" style="swimlane;fontSize=12;startSize=30;fillColor=#dae8fc;strokeColor=#6c8ebf;" parent="246" vertex="1">
                    <mxGeometry x="90" y="240" width="380" height="140" as="geometry"/>
                </mxCell>
                <object label="Providers" placeholders="1" id="224">
                    <mxCell style="swimlane;fontStyle=2;align=center;verticalAlign=top;childLayout=stackLayout;horizontal=1;startSize=30;horizontalStack=0;resizeParent=1;resizeParentMax=0;resizeLast=0;collapsible=1;marginBottom=0;fontSize=12;" parent="223" vertex="1">
                        <mxGeometry x="210" y="40" width="160" height="90" as="geometry"/>
                    </mxCell>
                </object>
                <mxCell id="225" value="TaggunReceiptScanner" style="html=1;fontSize=12;fillColor=#e1d5e7;strokeColor=#9673a6;" parent="224" vertex="1">
                    <mxGeometry y="30" width="160" height="20" as="geometry"/>
                </mxCell>
                <mxCell id="226" value="&lt;div style=&quot;text-align: left&quot;&gt;&lt;span&gt;FoodstuffsServices&lt;/span&gt;&lt;/div&gt;" style="html=1;fontSize=12;" parent="224" vertex="1">
                    <mxGeometry y="50" width="160" height="20" as="geometry"/>
                </mxCell>
                <mxCell id="227" value="&lt;span style=&quot;text-align: left&quot;&gt;CountdownServices&lt;/span&gt;" style="html=1;fontSize=12;" parent="224" vertex="1">
                    <mxGeometry y="70" width="160" height="20" as="geometry"/>
                </mxCell>
                <mxCell id="228" value="Tokens" style="swimlane;fontStyle=2;align=center;verticalAlign=top;childLayout=stackLayout;horizontal=1;startSize=30;horizontalStack=0;resizeParent=1;resizeParentMax=0;resizeLast=0;collapsible=1;marginBottom=0;fontSize=12;movable=1;resizable=1;rotatable=1;deletable=1;editable=1;connectable=1;" parent="223" vertex="1">
                    <mxGeometry x="10" y="40" width="160" height="50" as="geometry"/>
                </mxCell>
                <mxCell id="229" value="&lt;span style=&quot;font-style: italic ; text-align: left&quot;&gt;ReceiptScanner&lt;/span&gt;" style="html=1;fontSize=12;fillColor=#e1d5e7;strokeColor=#9673a6;" parent="228" vertex="1">
                    <mxGeometry y="30" width="160" height="20" as="geometry"/>
                </mxCell>
                <mxCell id="230" value="" style="ellipse;whiteSpace=wrap;html=1;align=center;aspect=fixed;resizable=0;points=[];outlineConnect=0;sketch=0;" parent="223" vertex="1">
                    <mxGeometry x="185" y="75" width="10" height="10" as="geometry"/>
                </mxCell>
                <mxCell id="231" value="" style="group;rotation=0;" parent="223" vertex="1" connectable="0">
                    <mxGeometry x="170" y="80" width="40" as="geometry"/>
                </mxCell>
                <mxCell id="232" value="" style="rounded=0;orthogonalLoop=1;jettySize=auto;html=1;endArrow=none;endFill=0;sketch=0;sourcePerimeterSpacing=0;targetPerimeterSpacing=0;" parent="231" target="230" edge="1">
                    <mxGeometry relative="1" as="geometry">
                        <mxPoint x="40" as="sourcePoint"/>
                    </mxGeometry>
                </mxCell>
                <mxCell id="233" value="" style="rounded=0;orthogonalLoop=1;jettySize=auto;html=1;endArrow=halfCircle;endFill=0;entryX=0.5;entryY=0.5;endSize=6;strokeWidth=1;sketch=0;exitX=0.5;exitY=0.5;exitDx=0;exitDy=0;entryDx=0;entryDy=0;" parent="231" target="230" edge="1">
                    <mxGeometry relative="1" as="geometry">
                        <mxPoint as="sourcePoint"/>
                    </mxGeometry>
                </mxCell>
                <mxCell id="245" value="" style="edgeStyle=none;html=1;fontSize=12;endArrow=none;endFill=0;entryX=0.5;entryY=0;entryDx=0;entryDy=0;" parent="246" source="242" target="223" edge="1">
                    <mxGeometry relative="1" as="geometry"/>
                </mxCell>
                <mxCell id="242" value="GrocyTrolleyApp" style="swimlane;fontStyle=1;align=center;verticalAlign=top;childLayout=stackLayout;horizontal=1;startSize=26;horizontalStack=0;resizeParent=1;resizeParentMax=0;resizeLast=0;collapsible=1;marginBottom=0;" parent="246" vertex="1">
                    <mxGeometry x="200" y="160" width="160" height="66" as="geometry"/>
                </mxCell>
                <mxCell id="243" value="&lt;div style=&quot;text-align: left&quot;&gt;&lt;span&gt;&lt;i&gt;PromptProvider&lt;/i&gt;&lt;/span&gt;&lt;/div&gt;" style="html=1;fontSize=12;fillColor=#d5e8d4;strokeColor=#82b366;" parent="242" vertex="1">
                    <mxGeometry y="26" width="160" height="20" as="geometry"/>
                </mxCell>
                <mxCell id="244" value="&lt;span style=&quot;font-style: italic ; text-align: left&quot;&gt;ChildContainer&lt;/span&gt;" style="html=1;fontSize=12;fillColor=#dae8fc;strokeColor=#6c8ebf;" parent="242" vertex="1">
                    <mxGeometry y="46" width="160" height="20" as="geometry"/>
                </mxCell>
                <object label="Eager Singletons" placeholders="1" id="302">
                    <mxCell style="swimlane;fontStyle=2;align=center;verticalAlign=top;childLayout=stackLayout;horizontal=1;startSize=30;horizontalStack=0;resizeParent=1;resizeParentMax=0;resizeLast=0;collapsible=1;marginBottom=0;fontSize=12;" parent="72" vertex="1">
                        <mxGeometry x="210" y="40" width="160" height="50" as="geometry"/>
                    </mxCell>
                </object>
                <mxCell id="303" value="&lt;div style=&quot;text-align: left&quot;&gt;&lt;span&gt;SlackPromptService&lt;/span&gt;&lt;/div&gt;" style="html=1;fontSize=12;" parent="302" vertex="1">
                    <mxGeometry y="30" width="160" height="20" as="geometry"/>
                </mxCell>
                <mxCell id="133" value="Tokens" style="swimlane;fontStyle=2;align=center;verticalAlign=top;childLayout=stackLayout;horizontal=1;startSize=30;horizontalStack=0;resizeParent=1;resizeParentMax=0;resizeLast=0;collapsible=1;marginBottom=0;fontSize=12;movable=1;resizable=1;rotatable=1;deletable=1;editable=1;connectable=1;" parent="27" vertex="1">
                    <mxGeometry x="234" y="50" width="160" height="90" as="geometry"/>
                </mxCell>
                <mxCell id="172" value="&lt;div style=&quot;text-align: left&quot;&gt;&lt;span&gt;&lt;i&gt;PromptProvider&lt;/i&gt;&lt;/span&gt;&lt;/div&gt;" style="html=1;fontSize=12;fillColor=#d5e8d4;strokeColor=#82b366;" parent="133" vertex="1">
                    <mxGeometry y="30" width="160" height="20" as="geometry"/>
                </mxCell>
                <mxCell id="170" value="&lt;span style=&quot;font-style: italic ; text-align: left&quot;&gt;ChildContainer&lt;/span&gt;" style="html=1;fontSize=12;fillColor=#dae8fc;strokeColor=#6c8ebf;" parent="133" vertex="1">
                    <mxGeometry y="50" width="160" height="20" as="geometry"/>
                </mxCell>
                <mxCell id="169" value="&lt;span style=&quot;font-style: italic ; text-align: left&quot;&gt;BrowserLoader&lt;/span&gt;" style="html=1;fontSize=12;" parent="133" vertex="1">
                    <mxGeometry y="70" width="160" height="20" as="geometry"/>
                </mxCell>
                <mxCell id="17" value="" style="ellipse;whiteSpace=wrap;html=1;align=center;aspect=fixed;resizable=0;points=[];outlineConnect=0;sketch=0;" parent="27" vertex="1">
                    <mxGeometry x="409" y="85" width="10" height="10" as="geometry"/>
                </mxCell>
                <mxCell id="147" value="" style="group;rotation=0;" parent="27" vertex="1" connectable="0">
                    <mxGeometry x="394" y="90" width="40" as="geometry"/>
                </mxCell>
                <mxCell id="15" value="" style="rounded=0;orthogonalLoop=1;jettySize=auto;html=1;endArrow=none;endFill=0;sketch=0;sourcePerimeterSpacing=0;targetPerimeterSpacing=0;" parent="147" target="17" edge="1">
                    <mxGeometry relative="1" as="geometry">
                        <mxPoint x="40" as="sourcePoint"/>
                    </mxGeometry>
                </mxCell>
                <mxCell id="16" value="" style="rounded=0;orthogonalLoop=1;jettySize=auto;html=1;endArrow=halfCircle;endFill=0;entryX=0.5;entryY=0.5;endSize=6;strokeWidth=1;sketch=0;exitX=0.5;exitY=0.5;exitDx=0;exitDy=0;entryDx=0;entryDy=0;" parent="147" target="17" edge="1">
                    <mxGeometry relative="1" as="geometry">
                        <mxPoint as="sourcePoint"/>
                    </mxGeometry>
                </mxCell>
                <object label="Providers" placeholders="1" id="143">
                    <mxCell style="swimlane;fontStyle=2;align=center;verticalAlign=top;childLayout=stackLayout;horizontal=1;startSize=30;horizontalStack=0;resizeParent=1;resizeParentMax=0;resizeLast=0;collapsible=1;marginBottom=0;fontSize=12;" parent="27" vertex="1">
                        <mxGeometry x="434" y="50" width="160" height="90" as="geometry"/>
                    </mxCell>
                </object>
                <mxCell id="177" value="&lt;span style=&quot;text-align: left&quot;&gt;CLIPromptProvider&lt;/span&gt;" style="html=1;fontSize=12;fillColor=#d5e8d4;strokeColor=#82b366;" parent="143" vertex="1">
                    <mxGeometry y="30" width="160" height="20" as="geometry"/>
                </mxCell>
                <mxCell id="164" value="&lt;span style=&quot;text-align: left&quot;&gt;() =&amp;gt; container.child()&lt;/span&gt;" style="html=1;fontSize=12;fillColor=#dae8fc;strokeColor=#6c8ebf;" parent="143" vertex="1">
                    <mxGeometry y="50" width="160" height="20" as="geometry"/>
                </mxCell>
                <mxCell id="168" value="&lt;span style=&quot;text-align: left&quot;&gt;getBrowser&lt;/span&gt;" style="html=1;fontSize=12;" parent="143" vertex="1">
                    <mxGeometry y="70" width="160" height="20" as="geometry"/>
                </mxCell>
                <mxCell id="18" value="GrocyTrolleyApp" style="swimlane;fontStyle=1;align=center;verticalAlign=top;childLayout=stackLayout;horizontal=1;startSize=26;horizontalStack=0;resizeParent=1;resizeParentMax=0;resizeLast=0;collapsible=1;marginBottom=0;" parent="27" vertex="1">
                    <mxGeometry x="220" y="200" width="160" height="66" as="geometry"/>
                </mxCell>
                <mxCell id="178" value="&lt;div style=&quot;text-align: left&quot;&gt;&lt;span&gt;&lt;i&gt;PromptProvider&lt;/i&gt;&lt;/span&gt;&lt;/div&gt;" style="html=1;fontSize=12;fillColor=#d5e8d4;strokeColor=#82b366;" parent="18" vertex="1">
                    <mxGeometry y="26" width="160" height="20" as="geometry"/>
                </mxCell>
                <mxCell id="179" value="&lt;span style=&quot;font-style: italic ; text-align: left&quot;&gt;ChildContainer&lt;/span&gt;" style="html=1;fontSize=12;fillColor=#dae8fc;strokeColor=#6c8ebf;" parent="18" vertex="1">
                    <mxGeometry y="46" width="160" height="20" as="geometry"/>
                </mxCell>
                <mxCell id="58" value="appContainer (Single Tenant)" style="swimlane;fontSize=12;startSize=30;fillColor=#dae8fc;strokeColor=#6c8ebf;" parent="27" vertex="1">
                    <mxGeometry x="410" y="200" width="400" height="140" as="geometry"/>
                </mxCell>
                <object label="Providers" placeholders="1" id="181">
                    <mxCell style="swimlane;fontStyle=2;align=center;verticalAlign=top;childLayout=stackLayout;horizontal=1;startSize=30;horizontalStack=0;resizeParent=1;resizeParentMax=0;resizeLast=0;collapsible=1;marginBottom=0;fontSize=12;" parent="58" vertex="1">
                        <mxGeometry x="220" y="40" width="160" height="90" as="geometry"/>
                    </mxCell>
                </object>
                <mxCell id="184" value="TaggunReceiptScanner" style="html=1;fontSize=12;fillColor=#e1d5e7;strokeColor=#9673a6;" parent="181" vertex="1">
                    <mxGeometry y="30" width="160" height="20" as="geometry"/>
                </mxCell>
                <mxCell id="182" value="&lt;div style=&quot;text-align: left&quot;&gt;&lt;span&gt;FoodstuffsServices&lt;/span&gt;&lt;/div&gt;" style="html=1;fontSize=12;" parent="181" vertex="1">
                    <mxGeometry y="50" width="160" height="20" as="geometry"/>
                </mxCell>
                <mxCell id="183" value="&lt;span style=&quot;text-align: left&quot;&gt;CountdownServices&lt;/span&gt;" style="html=1;fontSize=12;" parent="181" vertex="1">
                    <mxGeometry y="70" width="160" height="20" as="geometry"/>
                </mxCell>
                <mxCell id="185" value="Tokens" style="swimlane;fontStyle=2;align=center;verticalAlign=top;childLayout=stackLayout;horizontal=1;startSize=30;horizontalStack=0;resizeParent=1;resizeParentMax=0;resizeLast=0;collapsible=1;marginBottom=0;fontSize=12;movable=1;resizable=1;rotatable=1;deletable=1;editable=1;connectable=1;" parent="58" vertex="1">
                    <mxGeometry x="20" y="40" width="160" height="50" as="geometry"/>
                </mxCell>
                <mxCell id="186" value="&lt;span style=&quot;font-style: italic ; text-align: left&quot;&gt;ReceiptScanner&lt;/span&gt;" style="html=1;fontSize=12;fillColor=#e1d5e7;strokeColor=#9673a6;" parent="185" vertex="1">
                    <mxGeometry y="30" width="160" height="20" as="geometry"/>
                </mxCell>
                <mxCell id="193" value="" style="edgeStyle=none;html=1;fontSize=12;endArrow=none;endFill=0;" parent="27" source="179" edge="1">
                    <mxGeometry relative="1" as="geometry">
                        <mxPoint x="410" y="256" as="targetPoint"/>
                    </mxGeometry>
                </mxCell>
                <mxCell id="194" value="CLI Commands" style="swimlane;fontStyle=2;align=center;verticalAlign=top;childLayout=stackLayout;horizontal=1;startSize=30;horizontalStack=0;resizeParent=1;resizeParentMax=0;resizeLast=0;collapsible=1;marginBottom=0;fontSize=12;movable=1;resizable=1;rotatable=1;deletable=1;editable=1;connectable=1;" parent="27" vertex="1">
                    <mxGeometry x="20" y="170" width="160" height="90" as="geometry"/>
                </mxCell>
                <mxCell id="195" value="&lt;span style=&quot;font-style: italic ; text-align: left&quot;&gt;import&lt;/span&gt;" style="html=1;fontSize=12;fillColor=#f8cecc;strokeColor=#b85450;" parent="194" vertex="1">
                    <mxGeometry y="30" width="160" height="20" as="geometry"/>
                </mxCell>
                <mxCell id="196" value="&lt;span style=&quot;font-style: italic ; text-align: left&quot;&gt;export&lt;/span&gt;" style="html=1;fontSize=12;fillColor=#f8cecc;strokeColor=#b85450;" parent="194" vertex="1">
                    <mxGeometry y="50" width="160" height="20" as="geometry"/>
                </mxCell>
                <mxCell id="197" value="&lt;div style=&quot;text-align: left&quot;&gt;&lt;span&gt;&lt;i&gt;slack&lt;/i&gt;&lt;/span&gt;&lt;/div&gt;" style="html=1;fontSize=12;fillColor=#f8cecc;strokeColor=#b85450;" parent="194" vertex="1">
                    <mxGeometry y="70" width="160" height="20" as="geometry"/>
                </mxCell>
                <mxCell id="203" value="GrocyTrolleySlackBot" style="swimlane;fontStyle=1;align=center;verticalAlign=top;childLayout=stackLayout;horizontal=1;startSize=26;horizontalStack=0;resizeParent=1;resizeParentMax=0;resizeLast=0;collapsible=1;marginBottom=0;" parent="27" vertex="1">
                    <mxGeometry x="220" y="310" width="160" height="66" as="geometry"/>
                </mxCell>
                <mxCell id="268" value="&lt;div style=&quot;text-align: left&quot;&gt;&lt;span&gt;&lt;i&gt;slackApp&lt;/i&gt;&lt;/span&gt;&lt;/div&gt;" style="html=1;fontSize=12;" parent="203" vertex="1">
                    <mxGeometry y="26" width="160" height="20" as="geometry"/>
                </mxCell>
                <mxCell id="205" value="&lt;span style=&quot;font-style: italic ; text-align: left&quot;&gt;ChildContainer&lt;/span&gt;" style="html=1;fontSize=12;fillColor=#dae8fc;strokeColor=#6c8ebf;" parent="203" vertex="1">
                    <mxGeometry y="46" width="160" height="20" as="geometry"/>
                </mxCell>
                <mxCell id="234" style="edgeStyle=none;html=1;entryX=-0.003;entryY=0.31;entryDx=0;entryDy=0;fontSize=12;entryPerimeter=0;exitX=1;exitY=0.5;exitDx=0;exitDy=0;dashed=1;" parent="27" source="196" target="18" edge="1">
                    <mxGeometry relative="1" as="geometry">
                        <Array as="points">
                            <mxPoint x="190" y="230"/>
                            <mxPoint x="201" y="221"/>
                        </Array>
                    </mxGeometry>
                </mxCell>
                <mxCell id="235" style="edgeStyle=none;html=1;entryX=-0.003;entryY=0.167;entryDx=0;entryDy=0;entryPerimeter=0;fontSize=12;dashed=1;" parent="27" source="195" target="18" edge="1">
                    <mxGeometry relative="1" as="geometry"/>
                </mxCell>
                <mxCell id="237" style="edgeStyle=none;html=1;entryX=0;entryY=0.25;entryDx=0;entryDy=0;fontSize=12;exitX=1;exitY=0.5;exitDx=0;exitDy=0;dashed=1;" parent="27" source="197" target="203" edge="1">
                    <mxGeometry relative="1" as="geometry">
                        <Array as="points">
                            <mxPoint x="190" y="250"/>
                            <mxPoint x="200" y="327"/>
                        </Array>
                    </mxGeometry>
                </mxCell>
                <mxCell id="241" style="edgeStyle=none;html=1;entryX=0.122;entryY=0.003;entryDx=0;entryDy=0;entryPerimeter=0;fontSize=12;endArrow=none;endFill=0;" parent="27" source="205" target="72" edge="1">
                    <mxGeometry relative="1" as="geometry"/>
                </mxCell>
                <mxCell id="273" style="edgeStyle=none;html=1;entryX=0;entryY=0.5;entryDx=0;entryDy=0;fontSize=12;startArrow=none;startFill=0;endArrow=none;endFill=0;" parent="27" target="268" edge="1">
                    <mxGeometry relative="1" as="geometry">
                        <mxPoint x="180" y="346" as="sourcePoint"/>
                    </mxGeometry>
                </mxCell>
                <mxCell id="269" value="SlackAppService" style="swimlane;fontStyle=1;align=center;verticalAlign=top;childLayout=stackLayout;horizontal=1;startSize=26;horizontalStack=0;resizeParent=1;resizeParentMax=0;resizeLast=0;collapsible=1;marginBottom=0;" parent="27" vertex="1">
                    <mxGeometry x="20" y="336" width="160" height="66" as="geometry"/>
                </mxCell>
                <mxCell id="272" value="&lt;span style=&quot;font-style: italic ; text-align: left&quot;&gt;import&lt;/span&gt;" style="html=1;fontSize=12;fillColor=#f8cecc;strokeColor=#b85450;" parent="269" vertex="1">
                    <mxGeometry y="26" width="160" height="20" as="geometry"/>
                </mxCell>
                <mxCell id="274" value="&lt;span style=&quot;font-style: italic ; text-align: left&quot;&gt;export&lt;/span&gt;" style="html=1;fontSize=12;fillColor=#f8cecc;strokeColor=#b85450;" parent="269" vertex="1">
                    <mxGeometry y="46" width="160" height="20" as="geometry"/>
                </mxCell>
                <mxCell id="265" style="edgeStyle=none;html=1;entryX=-0.002;entryY=0.118;entryDx=0;entryDy=0;fontSize=12;startArrow=none;startFill=0;endArrow=classic;endFill=1;entryPerimeter=0;exitX=1;exitY=0.5;exitDx=0;exitDy=0;dashed=1;" parent="27" source="272" target="242" edge="1">
                    <mxGeometry relative="1" as="geometry">
                        <mxPoint x="200" y="601.9489489489488" as="sourcePoint"/>
                        <Array as="points">
                            <mxPoint x="210" y="372"/>
                            <mxPoint x="210" y="678"/>
                        </Array>
                    </mxGeometry>
                </mxCell>
                <mxCell id="266" style="edgeStyle=none;html=1;entryX=0;entryY=0.25;entryDx=0;entryDy=0;fontSize=12;startArrow=none;startFill=0;endArrow=classic;endFill=1;exitX=1;exitY=0.25;exitDx=0;exitDy=0;dashed=1;" parent="27" source="274" target="242" edge="1">
                    <mxGeometry relative="1" as="geometry">
                        <mxPoint x="200" y="619.1249999999998" as="sourcePoint"/>
                        <Array as="points">
                            <mxPoint x="200" y="387"/>
                            <mxPoint x="200" y="687"/>
                        </Array>
                    </mxGeometry>
                </mxCell>
                <mxCell id="153" value="" style="ellipse;whiteSpace=wrap;html=1;align=center;aspect=fixed;resizable=0;points=[];outlineConnect=0;sketch=0;" parent="1" vertex="1">
                    <mxGeometry x="409" y="105" width="10" height="10" as="geometry"/>
                </mxCell>
                <mxCell id="154" value="" style="group;rotation=0;" parent="1" vertex="1" connectable="0">
                    <mxGeometry x="394" y="110" width="40" as="geometry"/>
                </mxCell>
                <mxCell id="155" value="" style="rounded=0;orthogonalLoop=1;jettySize=auto;html=1;endArrow=none;endFill=0;sketch=0;sourcePerimeterSpacing=0;targetPerimeterSpacing=0;" parent="154" target="153" edge="1">
                    <mxGeometry relative="1" as="geometry">
                        <mxPoint x="40" as="sourcePoint"/>
                    </mxGeometry>
                </mxCell>
                <mxCell id="156" value="" style="rounded=0;orthogonalLoop=1;jettySize=auto;html=1;endArrow=halfCircle;endFill=0;entryX=0.5;entryY=0.5;endSize=6;strokeWidth=1;sketch=0;exitX=0.5;exitY=0.5;exitDx=0;exitDy=0;entryDx=0;entryDy=0;" parent="154" target="153" edge="1">
                    <mxGeometry relative="1" as="geometry">
                        <mxPoint as="sourcePoint"/>
                    </mxGeometry>
                </mxCell>
                <mxCell id="173" value="" style="ellipse;whiteSpace=wrap;html=1;align=center;aspect=fixed;resizable=0;points=[];outlineConnect=0;sketch=0;" parent="1" vertex="1">
                    <mxGeometry x="409" y="125" width="10" height="10" as="geometry"/>
                </mxCell>
                <mxCell id="174" value="" style="group;rotation=0;" parent="1" vertex="1" connectable="0">
                    <mxGeometry x="394" y="130" width="40" as="geometry"/>
                </mxCell>
                <mxCell id="175" value="" style="rounded=0;orthogonalLoop=1;jettySize=auto;html=1;endArrow=none;endFill=0;sketch=0;sourcePerimeterSpacing=0;targetPerimeterSpacing=0;" parent="174" target="173" edge="1">
                    <mxGeometry relative="1" as="geometry">
                        <mxPoint x="40" as="sourcePoint"/>
                    </mxGeometry>
                </mxCell>
                <mxCell id="176" value="" style="rounded=0;orthogonalLoop=1;jettySize=auto;html=1;endArrow=halfCircle;endFill=0;entryX=0.5;entryY=0.5;endSize=6;strokeWidth=1;sketch=0;exitX=0.5;exitY=0.5;exitDx=0;exitDy=0;entryDx=0;entryDy=0;" parent="174" target="173" edge="1">
                    <mxGeometry relative="1" as="geometry">
                        <mxPoint as="sourcePoint"/>
                    </mxGeometry>
                </mxCell>
                <mxCell id="189" value="" style="ellipse;whiteSpace=wrap;html=1;align=center;aspect=fixed;resizable=0;points=[];outlineConnect=0;sketch=0;" parent="1" vertex="1">
                    <mxGeometry x="605" y="275" width="10" height="10" as="geometry"/>
                </mxCell>
                <mxCell id="190" value="" style="group;rotation=0;" parent="1" vertex="1" connectable="0">
                    <mxGeometry x="590" y="280" width="40" as="geometry"/>
                </mxCell>
                <mxCell id="191" value="" style="rounded=0;orthogonalLoop=1;jettySize=auto;html=1;endArrow=none;endFill=0;sketch=0;sourcePerimeterSpacing=0;targetPerimeterSpacing=0;" parent="190" target="189" edge="1">
                    <mxGeometry relative="1" as="geometry">
                        <mxPoint x="40" as="sourcePoint"/>
                    </mxGeometry>
                </mxCell>
                <mxCell id="192" value="" style="rounded=0;orthogonalLoop=1;jettySize=auto;html=1;endArrow=halfCircle;endFill=0;entryX=0.5;entryY=0.5;endSize=6;strokeWidth=1;sketch=0;exitX=0.5;exitY=0.5;exitDx=0;exitDy=0;entryDx=0;entryDy=0;" parent="190" target="189" edge="1">
                    <mxGeometry relative="1" as="geometry">
                        <mxPoint as="sourcePoint"/>
                    </mxGeometry>
                </mxCell>
                <mxCell id="287" value="" style="ellipse;whiteSpace=wrap;html=1;align=center;aspect=fixed;resizable=0;points=[];outlineConnect=0;sketch=0;" parent="1" vertex="1">
                    <mxGeometry x="515" y="635" width="10" height="10" as="geometry"/>
                </mxCell>
                <mxCell id="288" value="" style="group;rotation=0;" parent="1" vertex="1" connectable="0">
                    <mxGeometry x="500" y="640" width="40" as="geometry"/>
                </mxCell>
                <mxCell id="289" value="" style="rounded=0;orthogonalLoop=1;jettySize=auto;html=1;endArrow=none;endFill=0;sketch=0;sourcePerimeterSpacing=0;targetPerimeterSpacing=0;" parent="288" target="287" edge="1">
                    <mxGeometry relative="1" as="geometry">
                        <mxPoint x="40" as="sourcePoint"/>
                    </mxGeometry>
                </mxCell>
                <mxCell id="290" value="" style="rounded=0;orthogonalLoop=1;jettySize=auto;html=1;endArrow=halfCircle;endFill=0;entryX=0.5;entryY=0.5;endSize=6;strokeWidth=1;sketch=0;exitX=0.5;exitY=0.5;exitDx=0;exitDy=0;entryDx=0;entryDy=0;" parent="288" target="287" edge="1">
                    <mxGeometry relative="1" as="geometry">
                        <mxPoint as="sourcePoint"/>
                    </mxGeometry>
                </mxCell>
            </root>
        </mxGraphModel>
    </diagram>
</mxfile>